<svg preserveAspectRatio="none" width="100%" height="100%" overflow="visible" style="display: block;" viewBox="0 0 24 24" fill="none" xmlns="http://www.w3.org/2000/svg">
<g id="Icon / gift">
<g id="Vector">
<path d="M20.25 9C20.25 8.86193 20.1381 8.75 20 8.75H4C3.86193 8.75 3.75 8.86193 3.75 9V11C3.75 11.1381 3.86193 11.25 4 11.25H20C20.1381 11.25 20.25 11.1381 20.25 11V9ZM21.75 11C21.75 11.9665 20.9665 12.75 20 12.75H4C3.0335 12.75 2.25 11.9665 2.25 11V9C2.25 8.0335 3.0335 7.25 4 7.25H20C20.9665 7.25 21.75 8.0335 21.75 9V11Z" fill="var(--fill-0, #1B3022)"/>
<path d="M11.25 21V8C11.25 7.58579 11.5858 7.25 12 7.25C12.4142 7.25 12.75 7.58579 12.75 8V21C12.75 21.4142 12.4142 21.75 12 21.75C11.5858 21.75 11.25 21.4142 11.25 21Z" fill="var(--fill-0, #1B3022)"/>
<path d="M4.25 19V12C4.25 11.5858 4.58579 11.25 5 11.25C5.41421 11.25 5.75 11.5858 5.75 12V19C5.75 19.3315 5.88179 19.6494 6.11621 19.8838C6.35063 20.1182 6.66848 20.25 7 20.25H17C17.3315 20.25 17.6494 20.1182 17.8838 19.8838C18.1182 19.6494 18.25 19.3315 18.25 19V12C18.25 11.5858 18.5858 11.25 19 11.25C19.4142 11.25 19.75 11.5858 19.75 12V19C19.75 19.7293 19.4601 20.4286 18.9443 20.9443C18.4286 21.4601 17.7293 21.75 17 21.75H7C6.27065 21.75 5.57139 21.4601 5.05566 20.9443C4.53994 20.4286 4.25 19.7293 4.25 19Z" fill="var(--fill-0, #1B3022)"/>
<path d="M18.25 5.49956C18.2499 5.03559 18.0654 4.59034 17.7373 4.26226C17.4091 3.93421 16.964 3.74956 16.5 3.74956H16.4873C15.7911 3.73743 15.0405 4.0722 14.3447 4.84527C13.6452 5.62256 13.0688 6.77485 12.7285 8.1773C12.6467 8.51337 12.3459 8.74956 12 8.74956C11.6541 8.74956 11.3533 8.51337 11.2715 8.1773C10.9312 6.77485 10.3548 5.62256 9.65527 4.84527C8.95952 4.0722 8.20886 3.73743 7.5127 3.74956L7.5 3.75054C7.03597 3.75054 6.59086 3.93421 6.2627 4.26226C5.93461 4.59034 5.75012 5.03559 5.75 5.49956C5.75 5.96369 5.93451 6.40966 6.2627 6.73784C6.59086 7.06586 7.036 7.24956 7.5 7.24956C7.91407 7.24956 8.24976 7.58555 8.25 7.99956C8.25 8.41378 7.91421 8.74956 7.5 8.74956C6.63817 8.74956 5.81162 8.40772 5.20215 7.79839C4.59266 7.1889 4.25 6.36152 4.25 5.49956C4.25012 4.63777 4.59276 3.8111 5.20215 3.20171C5.81162 2.59235 6.63815 2.24956 7.5 2.24956V2.25152C8.7282 2.23449 9.86405 2.83418 10.7705 3.84136C11.2492 4.37328 11.6606 5.01485 12 5.73394C12.3394 5.01485 12.7508 4.37328 13.2295 3.84136C14.136 2.83418 15.2718 2.23449 16.5 2.25152V2.24956C17.3619 2.24956 18.1884 2.59235 18.7979 3.20171C19.4072 3.8111 19.7499 4.63777 19.75 5.49956C19.75 6.36152 19.4073 7.1889 18.7979 7.79839C18.1884 8.40772 17.3618 8.74956 16.5 8.74956C16.0858 8.74956 15.75 8.41378 15.75 7.99956C15.7502 7.58555 16.0859 7.24956 16.5 7.24956C16.964 7.24956 17.4091 7.06586 17.7373 6.73784C18.0655 6.40966 18.25 5.96369 18.25 5.49956Z" fill="var(--fill-0, #1B3022)"/>
</g>
</g>
</svg>
