<svg preserveAspectRatio="none" width="100%" height="100%" overflow="visible" style="display: block;" viewBox="0 0 24 24" fill="none" xmlns="http://www.w3.org/2000/svg">
<g id="Icon / star">
<path id="Vector" d="M12.1779 1.2628C12.2951 1.27925 12.4095 1.31161 12.5177 1.35948L12.675 1.44249L12.8195 1.54698C12.9104 1.62276 12.9901 1.71095 13.0568 1.8087L13.1476 1.96202L15.4572 6.64171C15.5556 6.84088 15.7013 7.01299 15.881 7.14366C16.0605 7.27421 16.2688 7.35939 16.4884 7.39171L21.6545 8.14757C21.8316 8.17324 22 8.2357 22.1505 8.33018L22.2951 8.43565L22.423 8.55968C22.5022 8.64794 22.5683 8.74705 22.6203 8.85362L22.6877 9.01866L22.7306 9.19151C22.7616 9.36657 22.7559 9.54693 22.713 9.72081C22.6701 9.89479 22.5915 10.0577 22.4826 10.1983L22.3634 10.3312L18.6271 13.9689C18.4679 14.1241 18.3493 14.316 18.2804 14.5275C18.2117 14.7387 18.1953 14.9637 18.2326 15.1827L19.1144 20.3233C19.1552 20.5585 19.1296 20.8003 19.0402 21.0216C18.9503 21.2441 18.7998 21.4372 18.6056 21.5782C18.4115 21.7192 18.1809 21.8028 17.9416 21.8194C17.7023 21.836 17.4628 21.7847 17.2511 21.672L12.6369 19.2462C12.4402 19.143 12.2213 19.089 11.9992 19.089C11.7771 19.089 11.5581 19.142 11.3615 19.2452L11.3625 19.2462L6.74625 21.672C6.53456 21.784 6.2957 21.8354 6.05679 21.8185C5.818 21.8014 5.5883 21.7181 5.39468 21.5773C5.20103 21.4364 5.05087 21.2436 4.96109 21.0216C4.89375 20.855 4.86227 20.6764 4.86832 20.4982L4.88687 20.3204L5.76773 15.1847C5.80534 14.9654 5.78862 14.74 5.71988 14.5284C5.65106 14.3168 5.53265 14.1241 5.3732 13.9689L1.63687 10.3321L1.63785 10.3312C1.4666 10.165 1.34408 9.95532 1.28629 9.72374C1.22825 9.49111 1.2367 9.24671 1.3107 9.01866C1.38471 8.79062 1.52167 8.58792 1.70523 8.4337C1.88795 8.28027 2.10973 8.18057 2.34586 8.14659L7.5109 7.39171C7.73089 7.3597 7.9404 7.27529 8.12027 7.14464C8.30007 7.01402 8.44467 6.84095 8.54312 6.64171L10.8527 1.963C10.9585 1.74924 11.1227 1.5683 11.3253 1.44249L11.4826 1.35948C11.645 1.2877 11.8213 1.25011 12.0002 1.25011L12.1779 1.2628ZM9.88883 7.30577C9.6827 7.723 9.37765 8.08404 9.00113 8.35753C8.62481 8.63087 8.18794 8.80901 7.72769 8.87608L3.00015 9.56651L6.4191 12.8946C6.75287 13.2197 7.00257 13.6215 7.14664 14.0646C7.29059 14.5074 7.32495 14.9786 7.24625 15.4376L6.43961 20.1388L10.6642 17.9181L10.8205 17.8419C11.1904 17.6753 11.5921 17.589 11.9992 17.589C12.4643 17.589 12.9233 17.7018 13.3351 17.9181L17.5607 20.1388L16.7541 15.4366C16.6757 14.9777 16.7096 14.5063 16.8537 14.0636C16.9977 13.6209 17.2468 13.2195 17.5802 12.8946L20.9972 9.56749L16.2716 8.87608C15.8118 8.80853 15.374 8.62989 14.9982 8.35655C14.6224 8.08317 14.3183 7.72238 14.1125 7.30577L12.0002 3.02647L9.88883 7.30577Z" fill="var(--fill-0, #1B3022)"/>
</g>
</svg>
