<svg preserveAspectRatio="none" width="100%" height="100%" overflow="visible" style="display: block;" viewBox="0 0 53 48" fill="none" xmlns="http://www.w3.org/2000/svg">
<g id="Frame 1597883903">
<path id="Vector" d="M52.4101 13.8087L52.6549 13.8111C52.8628 14.1196 52.8499 14.2366 52.8756 14.6105C53.4635 22.9465 52.0727 31.0501 46.4568 37.5258C41.0403 43.7723 33.2407 47.3724 25.0953 48L24.9358 47.9848C24.8945 47.8707 24.8305 47.7044 24.8205 47.5824C24.187 39.9211 24.8362 31.9438 29.531 25.6283C35.3632 17.7835 43.2453 15.2469 52.4101 13.8087Z" fill="var(--fill-0, #060A08)"/>
<path id="Vector_2" d="M0.139346 13.8183C10.7554 14.7408 17.1042 17.4272 24.5799 24.9689C21.1759 31.7505 20.2375 35.5202 20.9833 43.2361C21.155 44.4304 21.3546 45.6205 21.5821 46.8053C17.127 45.4203 14.1693 44.3531 10.4378 41.4054C1.47022 34.3212 -0.605732 24.7252 0.139346 13.8183Z" fill="var(--fill-0, #060A08)"/>
<path id="Vector_3" d="M26.513 0C28.9729 3.19947 33.8684 11.1002 35.2051 15.0521C32.4449 17.0376 29.2049 19.9433 27.1465 22.6542L27.0697 22.6857C26.701 22.5941 26.3152 22.0648 26.0632 21.7707C23.8297 19.1678 21.2518 17.0649 18.5639 14.9484C20.9618 9.14889 22.8745 5.14762 26.513 0Z" fill="var(--fill-0, #060A08)"/>
</g>
</svg>
