<svg preserveAspectRatio="none" width="100%" height="100%" overflow="visible" style="display: block;" viewBox="0 0 20 20" fill="none" xmlns="http://www.w3.org/2000/svg">
<g id="Icon / qr-code">
<g id="Vector">
<path d="M6.04167 3.33333C6.04167 3.21827 5.94839 3.125 5.83333 3.125H3.33333C3.21827 3.125 3.125 3.21827 3.125 3.33333V5.83333C3.125 5.94839 3.21827 6.04167 3.33333 6.04167H5.83333C5.94839 6.04167 6.04167 5.94839 6.04167 5.83333V3.33333ZM7.29167 5.83333C7.29167 6.63875 6.63875 7.29167 5.83333 7.29167H3.33333C2.52792 7.29167 1.875 6.63875 1.875 5.83333V3.33333C1.875 2.52792 2.52792 1.875 3.33333 1.875H5.83333C6.63875 1.875 7.29167 2.52792 7.29167 3.33333V5.83333Z" fill="var(--fill-0, #060A08)"/>
<path d="M16.875 3.33333C16.875 3.21827 16.7817 3.125 16.6667 3.125H14.1667C14.0516 3.125 13.9583 3.21827 13.9583 3.33333V5.83333C13.9583 5.94839 14.0516 6.04167 14.1667 6.04167H16.6667C16.7817 6.04167 16.875 5.94839 16.875 5.83333V3.33333ZM18.125 5.83333C18.125 6.63875 17.4721 7.29167 16.6667 7.29167H14.1667C13.3613 7.29167 12.7083 6.63875 12.7083 5.83333V3.33333C12.7083 2.52792 13.3613 1.875 14.1667 1.875H16.6667C17.4721 1.875 18.125 2.52792 18.125 3.33333V5.83333Z" fill="var(--fill-0, #060A08)"/>
<path d="M6.04167 14.1667C6.04167 14.0516 5.94839 13.9583 5.83333 13.9583H3.33333C3.21827 13.9583 3.125 14.0516 3.125 14.1667V16.6667C3.125 16.7817 3.21827 16.875 3.33333 16.875H5.83333C5.94839 16.875 6.04167 16.7817 6.04167 16.6667V14.1667ZM7.29167 16.6667C7.29167 17.4721 6.63875 18.125 5.83333 18.125H3.33333C2.52792 18.125 1.875 17.4721 1.875 16.6667V14.1667C1.875 13.3613 2.52792 12.7083 3.33333 12.7083H5.83333C6.63875 12.7083 7.29167 13.3613 7.29167 14.1667V16.6667Z" fill="var(--fill-0, #060A08)"/>
<path d="M12.7083 17.5V15C12.7083 14.3922 12.9499 13.8095 13.3797 13.3797C13.8095 12.95 14.3922 12.7083 15 12.7083H17.5C17.8452 12.7083 18.125 12.9882 18.125 13.3333C18.125 13.6785 17.8452 13.9583 17.5 13.9583H15C14.7237 13.9583 14.4589 14.0682 14.2635 14.2635C14.0682 14.4589 13.9583 14.7237 13.9583 15V17.5C13.9583 17.8452 13.6785 18.125 13.3333 18.125C12.9882 18.125 12.7083 17.8452 12.7083 17.5Z" fill="var(--fill-0, #060A08)"/>
<path d="M16.875 17.5081V17.5C16.875 17.1548 17.1548 16.875 17.5 16.875C17.8452 16.875 18.125 17.1548 18.125 17.5V17.5081C18.125 17.8533 17.8452 18.1331 17.5 18.1331C17.1548 18.1331 16.875 17.8533 16.875 17.5081Z" fill="var(--fill-0, #060A08)"/>
<path d="M9.375 8.33333V5.83333C9.375 5.48816 9.65482 5.20833 10 5.20833C10.3452 5.20833 10.625 5.48816 10.625 5.83333V8.33333C10.625 8.94112 10.3834 9.52384 9.95361 9.95361C9.52384 10.3834 8.94112 10.625 8.33333 10.625H5.83333C5.48816 10.625 5.20833 10.3452 5.20833 10C5.20833 9.65482 5.48816 9.375 5.83333 9.375H8.33333C8.6096 9.375 8.87447 9.26518 9.06982 9.06982C9.26517 8.87447 9.375 8.6096 9.375 8.33333Z" fill="var(--fill-0, #060A08)"/>
<path d="M2.50814 9.375C2.85332 9.375 3.13314 9.65482 3.13314 10C3.13314 10.3452 2.85332 10.625 2.50814 10.625H2.5C2.15482 10.625 1.875 10.3452 1.875 10C1.875 9.65482 2.15482 9.375 2.5 9.375H2.50814Z" fill="var(--fill-0, #060A08)"/>
<path d="M10.0081 1.875C10.3533 1.875 10.6331 2.15482 10.6331 2.5C10.6331 2.84518 10.3533 3.125 10.0081 3.125H10C9.65482 3.125 9.375 2.84518 9.375 2.5C9.375 2.15482 9.65482 1.875 10 1.875H10.0081Z" fill="var(--fill-0, #060A08)"/>
<path d="M9.375 13.3415V13.3333C9.375 12.9882 9.65482 12.7083 10 12.7083C10.3452 12.7083 10.625 12.9882 10.625 13.3333V13.3415C10.625 13.6866 10.3452 13.9665 10 13.9665C9.65482 13.9665 9.375 13.6866 9.375 13.3415Z" fill="var(--fill-0, #060A08)"/>
<path d="M14.1667 9.375C14.5118 9.375 14.7917 9.65482 14.7917 10C14.7917 10.3452 14.5118 10.625 14.1667 10.625H13.3333C12.9882 10.625 12.7083 10.3452 12.7083 10C12.7083 9.65482 12.9882 9.375 13.3333 9.375H14.1667Z" fill="var(--fill-0, #060A08)"/>
<path d="M16.875 10.0081V10C16.875 9.65482 17.1548 9.375 17.5 9.375C17.8452 9.375 18.125 9.65482 18.125 10V10.0081C18.125 10.3533 17.8452 10.6331 17.5 10.6331C17.1548 10.6331 16.875 10.3533 16.875 10.0081Z" fill="var(--fill-0, #060A08)"/>
<path d="M9.375 17.5V16.6667C9.375 16.3215 9.65482 16.0417 10 16.0417C10.3452 16.0417 10.625 16.3215 10.625 16.6667V17.5C10.625 17.8452 10.3452 18.125 10 18.125C9.65482 18.125 9.375 17.8452 9.375 17.5Z" fill="var(--fill-0, #060A08)"/>
</g>
</g>
</svg>
