<svg preserveAspectRatio="none" width="100%" height="100%" overflow="visible" style="display: block;" viewBox="0 0 24 24" fill="none" xmlns="http://www.w3.org/2000/svg">
<g id="Icon / user-round">
<g id="Vector">
<path d="M16.25 8C16.25 5.65279 14.3472 3.75 12 3.75C9.65279 3.75 7.75 5.65279 7.75 8C7.75 10.3472 9.65279 12.25 12 12.25C14.3472 12.25 16.25 10.3472 16.25 8ZM17.75 8C17.75 11.1756 15.1756 13.75 12 13.75C8.82436 13.75 6.25 11.1756 6.25 8C6.25 4.82436 8.82436 2.25 12 2.25C15.1756 2.25 17.75 4.82436 17.75 8Z" fill="var(--fill-0, #1B3022)"/>
<path d="M19.25 21C19.25 19.0772 18.4866 17.2327 17.127 15.873C15.7673 14.5134 13.9228 13.75 12 13.75C10.0772 13.75 8.23269 14.5134 6.87305 15.873C5.51341 17.2327 4.75 19.0772 4.75 21C4.75 21.4142 4.41421 21.75 4 21.75C3.58579 21.75 3.25 21.4142 3.25 21C3.25 18.6794 4.17156 16.4534 5.8125 14.8125C7.45344 13.1716 9.67936 12.25 12 12.25C14.3206 12.25 16.5466 13.1716 18.1875 14.8125C19.8284 16.4534 20.75 18.6794 20.75 21C20.75 21.4142 20.4142 21.75 20 21.75C19.5858 21.75 19.25 21.4142 19.25 21Z" fill="var(--fill-0, #1B3022)"/>
</g>
</g>
</svg>
