<svg preserveAspectRatio="none" width="100%" height="100%" overflow="visible" style="display: block;" viewBox="0 0 35 32" fill="none" xmlns="http://www.w3.org/2000/svg">
<g id="Frame 1597883901">
<path id="Vector" d="M34.6104 9.20578L34.7721 9.2074C34.9094 9.41307 34.9009 9.49106 34.9178 9.74031C35.3061 15.2977 34.3876 20.7 30.679 25.0172C27.1021 29.1815 21.9514 31.5816 16.5723 32L16.4671 31.9899C16.4398 31.9138 16.3975 31.8029 16.3909 31.7216C15.9726 26.614 16.4012 21.2959 19.5016 17.0855C23.3531 11.8557 28.5582 10.1646 34.6104 9.20578Z" fill="var(--fill-0, #6FA94A)"/>
<path id="Vector_2" d="M0.0920209 9.21217C7.1026 9.82718 11.2952 11.6181 16.232 16.646C13.9841 21.167 13.3644 23.6801 13.8569 28.8241C13.9703 29.6203 14.1021 30.4137 14.2523 31.2035C11.3103 30.2802 9.35708 29.5688 6.89287 27.6036C0.970898 22.8808 -0.400012 16.4835 0.0920209 9.21217Z" fill="var(--fill-0, #154C1B)"/>
<path id="Vector_3" d="M17.5086 0C19.1331 2.13298 22.366 7.40013 23.2487 10.0347C21.4259 11.3584 19.2863 13.2955 17.9269 15.1028L17.8762 15.1238C17.6327 15.0628 17.3779 14.7099 17.2116 14.5138C15.7366 12.7785 14.0342 11.3766 12.2592 9.96562C13.8427 6.09926 15.1058 3.43175 17.5086 0Z" fill="var(--fill-0, #C6E0AC)"/>
</g>
</svg>
