<svg preserveAspectRatio="none" width="100%" height="100%" overflow="visible" style="display: block;" viewBox="0 0 195 176" fill="none" xmlns="http://www.w3.org/2000/svg">
<g id="Frame 1597883901" opacity="0.05">
<path id="Vector" d="M192.83 50.6318L193.73 50.6407C194.495 51.7719 194.448 52.2009 194.542 53.5717C196.705 84.1374 191.588 113.85 170.926 137.595C150.997 160.498 122.301 173.699 92.3316 176L91.745 175.944C91.5931 175.526 91.3574 174.916 91.3208 174.469C88.9901 146.377 91.3784 117.127 108.652 93.9703C130.11 65.2061 159.11 55.9054 192.83 50.6318Z" fill="var(--fill-0, white)"/>
<path id="Vector_2" d="M0.512688 50.6669C39.5716 54.0495 62.9305 63.8998 90.4354 91.5528C77.9114 116.418 74.4588 130.241 77.2028 158.532C77.8344 162.911 78.5687 167.275 79.4057 171.619C63.0143 166.541 52.1323 162.628 38.4031 151.82C5.40929 125.844 -2.22864 90.6591 0.512688 50.6669Z" fill="var(--fill-0, white)"/>
<path id="Vector_3" d="M97.548 0C106.598 11.7314 124.61 40.7007 129.528 55.1911C119.373 62.4712 107.452 73.1254 99.8787 83.0654L99.5959 83.1808C98.2394 82.8451 96.82 80.9042 95.8929 79.826C87.6752 70.282 78.1906 62.5714 68.3011 54.8109C77.1237 33.5459 84.1609 18.8746 97.548 0Z" fill="var(--fill-0, white)"/>
</g>
</svg>
