<svg preserveAspectRatio="none" width="100%" height="100%" overflow="visible" style="display: block;" viewBox="0 0 109 16" fill="none" xmlns="http://www.w3.org/2000/svg">
<g id="Frame 1597883902">
<path id="Vector" d="M67.4296 0.185728C68.4637 0.181821 69.4157 0.154842 70.5635 0.174989C73.9299 0.234085 81.7127 -0.742716 80.303 4.97218C80.0179 6.12408 79.2335 6.71016 78.2092 7.26254C80.8329 8.45888 81.6014 10.2144 80.7032 12.9867C79.9983 14.1855 78.7929 15.1207 77.4236 15.3284C74.2971 15.8025 70.6051 15.5914 67.4578 15.5663C67.3342 10.6012 67.4382 5.17694 67.4296 0.185728ZM71.0628 12.9356C72.7527 12.9567 74.9383 13.1699 76.3957 12.403C79.2053 8.53201 73.0085 8.90626 71.031 8.95693C71.0922 10.2492 71.0652 11.6343 71.0628 12.9356ZM71.0138 6.4894C72.5545 6.49807 74.5345 6.67084 75.8671 5.96754C76.4373 5.40368 77.1764 4.22993 76.3504 3.58695C75.0203 2.55203 72.6561 2.78537 71.0444 2.80625C71.0457 3.87914 71.0946 5.45741 71.0138 6.4894Z" fill="var(--fill-0, #0B2117)"/>
<path id="Vector_2" d="M8.03258 0.055112C11.399 -0.165523 13.5225 0.210909 16.0975 2.3904C15.3855 3.00517 14.1722 3.8263 13.341 4.49699C9.7317 1.59491 4.60559 2.72691 4.05566 7.74779C3.7233 10.7821 6.06315 13.0584 9.02011 13.1022C10.5729 13.1253 11.7234 13.034 12.9046 11.8917C13.499 11.3444 13.3693 10.3932 13.3657 9.64278L9.02573 9.66598C9.00995 9.10737 8.99881 8.54877 8.99233 7.98991C8.99049 7.55768 8.93567 7.01604 9.20158 6.7484L16.8114 6.74156C16.7706 8.98845 16.7987 11.3025 16.8009 13.5546C14.8155 14.9211 13.3685 15.5626 10.8976 15.8309C8.05007 16.135 4.94847 15.9019 2.63187 14.0479C-0.589408 11.4699 -0.831214 6.14608 1.78299 3.05975C3.46522 1.07379 5.48825 0.297725 8.03258 0.055112Z" fill="var(--fill-0, #0B2117)"/>
<path id="Vector_3" d="M101.711 3.70957C103.683 3.49883 106.074 3.59809 107.559 5.08552C109.173 6.70298 109.006 8.86366 108.985 10.9648L100.284 10.9773C101.675 14.1186 103.859 13.887 106.481 12.309L106.797 12.395C107.433 12.8458 108.168 13.2644 108.842 13.6672C102.986 19.1131 93.5386 14.3251 97.567 6.42972C98.3747 4.8473 100.084 4.10005 101.711 3.70957ZM100.298 8.73033L104.181 8.72288L105.756 8.72875C105.256 6.53473 104.452 5.88906 102.188 6.12715C100.818 6.88283 100.739 7.23827 100.298 8.73033Z" fill="var(--fill-0, #0B2117)"/>
<path id="Vector_4" d="M31.7733 3.6948C32.2352 3.65732 32.6983 3.63791 33.1617 3.63681C38.2697 3.59224 39.0476 6.61825 39.0003 10.9574C36.1831 10.9798 33.3657 10.9809 30.5485 10.9611C31.817 14.0684 34.1276 13.9666 36.7213 12.328C36.9348 12.1931 37.4382 12.6058 37.6291 12.728L39.1608 13.712C36.7473 16.1535 32.5317 16.7201 29.5696 15.0283C28.2983 14.3123 27.3759 13.1082 27.0174 11.6962C26.0069 7.83303 27.9485 4.68675 31.7733 3.6948ZM30.5451 8.72729L34.1265 8.73425L35.8168 8.7423C35.4375 6.53632 34.5667 5.88699 32.3178 6.1307C31.4196 6.64572 31.0225 6.92643 30.7291 7.99042C30.6631 8.23486 30.6016 8.48052 30.5451 8.72729Z" fill="var(--fill-0, #0B2117)"/>
<path id="Vector_5" d="M44.7632 3.69796C46.7435 3.53679 49.0417 3.62226 50.5205 5.14668C52.0611 6.7352 51.9265 8.9219 51.8951 10.9673L43.4738 10.9767C43.5348 11.1508 43.6005 11.3231 43.6708 11.4937C44.788 14.1778 47.5499 13.5493 49.4275 12.3379C49.6339 12.2047 50.1499 12.6241 50.3509 12.7534L51.7871 13.6329C51.5014 13.9079 51.1662 14.2352 50.8611 14.4849C48.3669 16.6979 42.2206 16.5053 40.6145 13.2234C38.5694 9.04436 40.1837 4.786 44.7632 3.69796ZM43.4391 8.73252L47.3095 8.73704L48.7318 8.73594C48.4546 6.5573 47.4246 5.91384 45.302 6.14461C43.8721 6.95194 43.8553 7.186 43.4391 8.73252Z" fill="var(--fill-0, #0B2117)"/>
<path id="Vector_6" d="M59.9259 3.70602C60.2599 3.6827 60.5928 3.66548 60.9269 3.65412C63.0671 3.591 65.1682 4.72397 65.5121 6.88661C65.9343 9.52788 65.7532 12.8643 65.7593 15.5579L62.0674 15.5842C61.9744 12.9071 63.3204 4.23508 57.9594 7.12422C56.8005 8.31079 56.8776 9.47012 56.885 11.0555C56.8911 12.5648 56.9058 14.0754 56.9082 15.5845C55.7616 15.535 54.4204 15.5786 53.2591 15.5904C53.2077 11.7812 53.253 7.86353 53.2542 4.04619C54.4376 4.05071 55.6209 4.04485 56.8042 4.02849L56.8018 5.85059C57.7159 4.52861 58.4183 4.13691 59.9259 3.70602Z" fill="var(--fill-0, #0B2117)"/>
<path id="Vector_7" d="M89.1969 1.48821L92.8741 1.49089C92.835 2.34169 92.8105 3.19309 92.7995 4.04462L96.0215 4.02789L96.0105 6.54279C94.9508 6.54584 93.891 6.54303 92.8313 6.53449C92.8582 8.16782 92.6416 10.886 93.0308 12.4051C93.3281 13.5715 95.3301 12.7721 95.9432 13.0472L95.9713 13.5922C96.0411 14.2534 96.1218 14.9132 96.2161 15.5712C87.9059 16.6769 89.159 13.2069 89.2018 6.56928L87.2879 6.58211L87.3063 4.03888L89.2226 4.05744L89.1969 1.48821Z" fill="var(--fill-0, #0B2117)"/>
<path id="Vector_8" d="M24.4306 3.69299C24.9322 3.64793 25.7409 3.666 26.2686 3.66283L26.2024 6.71142C22.8711 6.54439 21.8601 7.59336 21.8264 11.0006C21.8115 12.5235 21.8387 14.0515 21.909 15.5785C20.8931 15.5323 19.6306 15.5623 18.596 15.5586C18.3013 15.5814 18.4219 15.6244 18.2112 15.4634C18.2832 12.3628 18.3648 7.07663 18.1822 4.02913L21.8715 4.0185L21.8655 5.90886C22.6609 4.53279 22.9349 4.24488 24.4306 3.69299Z" fill="var(--fill-0, #0B2117)"/>
<path id="Vector_9" d="M82.4519 4.04593C83.6743 4.05069 84.9201 4.02591 86.145 4.01382C86.1401 5.17829 86.2111 15.2798 86.03 15.5717C84.8369 15.5636 83.6438 15.5679 82.4506 15.5844C82.3809 11.8352 82.4127 7.80174 82.4519 4.04593Z" fill="var(--fill-0, #0B2117)"/>
<path id="Vector_10" d="M83.8726 0.0342096C84.8931 -0.028672 85.9064 0.150572 86.2833 1.26474C86.4032 1.61919 86.3616 2.00845 86.167 2.32908C85.8378 2.88415 85.3814 3.02481 84.8099 3.15997C83.7881 3.20039 82.6672 3.10039 82.294 1.93226C82.1949 1.63189 82.2242 1.30454 82.3735 1.02578C82.7052 0.410153 83.2509 0.198557 83.8726 0.0342096Z" fill="var(--fill-0, #0B2117)"/>
</g>
</svg>
