<svg preserveAspectRatio="none" width="100%" height="100%" overflow="visible" style="display: block;" viewBox="0 0 24 24" fill="none" xmlns="http://www.w3.org/2000/svg">
<g id="Icon / x">
<g id="Vector">
<path d="M17.4697 5.46973C17.7626 5.17683 18.2374 5.17683 18.5303 5.46973C18.8232 5.76262 18.8232 6.23738 18.5303 6.53027L6.53027 18.5303C6.23738 18.8232 5.76262 18.8232 5.46973 18.5303C5.17683 18.2374 5.17683 17.7626 5.46973 17.4697L17.4697 5.46973Z" fill="var(--fill-0, #0D1711)"/>
<path d="M5.46973 5.46973C5.76262 5.17683 6.23738 5.17683 6.53027 5.46973L18.5303 17.4697C18.8232 17.7626 18.8232 18.2374 18.5303 18.5303C18.2374 18.8232 17.7626 18.8232 17.4697 18.5303L5.46973 6.53027C5.17683 6.23738 5.17683 5.76262 5.46973 5.46973Z" fill="var(--fill-0, #0D1711)"/>
</g>
</g>
</svg>
