<svg preserveAspectRatio="none" width="100%" height="100%" overflow="visible" style="display: block;" viewBox="0 0 24 24" fill="none" xmlns="http://www.w3.org/2000/svg">
<g id="Icon / gem">
<g id="Vector">
<path d="M18 2.25C18.2508 2.25 18.4849 2.37534 18.624 2.58398L22.624 8.58398C22.8022 8.85126 22.7904 9.20235 22.5947 9.45703L12.5947 22.457C12.4528 22.6416 12.2329 22.75 12 22.75C11.7671 22.75 11.5472 22.6416 11.4053 22.457L1.40527 9.45703C1.20955 9.20235 1.19779 8.85126 1.37598 8.58398L5.37598 2.58398L5.43262 2.50977C5.57405 2.34604 5.78061 2.25 6 2.25H18ZM2.92188 8.96777L12 20.7695L21.0771 8.96777L17.5986 3.75H6.40137L2.92188 8.96777Z" fill="var(--fill-0, #1B3022)"/>
<path d="M12.665 2.3291C13.0354 2.14416 13.4857 2.29469 13.6709 2.66504L16.6709 8.66504C16.757 8.83746 16.7735 9.0365 16.7168 9.2207L12.7168 22.2207C12.6199 22.5353 12.3292 22.75 12 22.75C11.6708 22.75 11.3801 22.5353 11.2832 22.2207L7.2832 9.2207C7.22652 9.0365 7.24302 8.83746 7.3291 8.66504L10.3291 2.66504C10.5143 2.29469 10.9646 2.14416 11.335 2.3291C11.7053 2.51428 11.8558 2.96455 11.6709 3.33496L8.80469 9.06641L12 19.4492L15.1943 9.06641L12.3291 3.33496C12.1442 2.96455 12.2947 2.51428 12.665 2.3291Z" fill="var(--fill-0, #1B3022)"/>
<path d="M22 8.25C22.4142 8.25 22.75 8.58579 22.75 9C22.75 9.41421 22.4142 9.75 22 9.75H2C1.58579 9.75 1.25 9.41421 1.25 9C1.25 8.58579 1.58579 8.25 2 8.25H22Z" fill="var(--fill-0, #1B3022)"/>
</g>
</g>
</svg>
