<svg preserveAspectRatio="none" width="100%" height="100%" overflow="visible" style="display: block;" viewBox="0 0 135 20" fill="none" xmlns="http://www.w3.org/2000/svg">
<g id="Frame 1597883904">
<path id="Vector" d="M83.5138 0.23216C84.7944 0.227276 85.9736 0.193553 87.3952 0.218736C91.5646 0.292607 101.204 -0.928395 99.4578 6.21523C99.1047 7.6551 98.1332 8.3877 96.8647 9.07818C100.114 10.5736 101.066 12.768 99.9534 16.2334C99.0805 17.7319 97.5876 18.9008 95.8916 19.1604C92.0193 19.7531 87.4467 19.4892 83.5486 19.4579C83.3955 13.2516 83.5244 6.47118 83.5138 0.23216ZM88.0136 16.1694C90.1066 16.1959 92.8135 16.4623 94.6185 15.5037C98.0983 10.665 90.4234 11.1328 87.9742 11.1962C88.0499 12.8115 88.0166 14.5429 88.0136 16.1694ZM87.9529 8.11175C89.8611 8.12258 92.3133 8.33855 93.9638 7.45943C94.6701 6.75461 95.5855 5.28742 94.5625 4.48369C92.915 3.19004 89.9869 3.48171 87.9908 3.50781C87.9923 4.84893 88.053 6.82176 87.9529 8.11175Z" fill="var(--fill-0, #060A08)"/>
<path id="Vector_2" d="M9.94861 0.06889C14.118 -0.206904 16.748 0.263636 19.9373 2.988C19.0554 3.75647 17.5527 4.78287 16.5233 5.62124C12.053 1.99364 5.70417 3.40864 5.02306 9.68474C4.61142 13.4776 7.5094 16.323 11.1717 16.3778C13.0948 16.4067 14.5198 16.2925 15.9828 14.8647C16.7189 14.1805 16.5583 12.9915 16.5539 12.0535L11.1787 12.0825C11.1591 11.3842 11.1453 10.686 11.1373 9.98739C11.135 9.4471 11.0671 8.77006 11.3965 8.4355L20.8215 8.42695C20.7709 11.2356 20.8057 14.1281 20.8085 16.9433C18.3494 18.6513 16.5574 19.4532 13.4971 19.7887C9.97027 20.1687 6.12884 19.8774 3.25966 17.5599C-0.730001 14.3374 -1.02949 7.6826 2.20829 3.82469C4.29178 1.34224 6.79737 0.372156 9.94861 0.06889Z" fill="var(--fill-0, #060A08)"/>
<path id="Vector_3" d="M125.972 4.63697C128.415 4.37353 131.376 4.49762 133.215 6.3569C135.214 8.37872 135.008 11.0796 134.982 13.706L124.205 13.7217C125.928 17.6483 128.633 17.3587 131.88 15.3862L132.272 15.4938C133.059 16.0573 133.97 16.5805 134.805 17.084C127.551 23.8914 115.851 17.9064 120.84 8.03714C121.84 6.05912 123.958 5.12506 125.972 4.63697ZM124.223 10.9129L129.032 10.9036L130.982 10.9109C130.362 8.16841 129.367 7.36132 126.563 7.65894C124.867 8.60354 124.768 9.04784 124.223 10.9129Z" fill="var(--fill-0, #060A08)"/>
<path id="Vector_4" d="M39.3523 4.6185C39.9243 4.57165 40.4979 4.54739 41.0719 4.54601C47.3983 4.4903 48.3618 8.27282 48.3031 13.6968C44.8139 13.7247 41.3245 13.7261 37.8353 13.7014C39.4064 17.5855 42.2682 17.4583 45.4805 15.41C45.7449 15.2414 46.3685 15.7573 46.6049 15.91L48.502 17.14C45.5127 20.1919 40.2915 20.9001 36.6229 18.7853C35.0483 17.8903 33.906 16.3853 33.4619 14.6202C32.2103 9.79128 34.6151 5.85843 39.3523 4.6185ZM37.8311 10.9091L42.2668 10.9178L44.3603 10.9279C43.8904 8.1704 42.8119 7.35874 40.0266 7.66338C38.9141 8.30715 38.4223 8.65804 38.059 9.98802C37.9772 10.2936 37.9011 10.6007 37.8311 10.9091Z" fill="var(--fill-0, #060A08)"/>
<path id="Vector_5" d="M55.4406 4.62245C57.8933 4.42099 60.7398 4.52782 62.5712 6.43335C64.4794 8.41901 64.3127 11.1524 64.2737 13.7092L53.8437 13.7209C53.9193 13.9386 54.0007 14.1539 54.0877 14.3671C55.4714 17.7223 58.8921 16.9366 61.2175 15.4224C61.4732 15.2559 62.1123 15.7801 62.3612 15.9418L64.14 17.0411C63.7861 17.3848 63.371 17.794 62.9932 18.1061C59.9039 20.8723 52.2915 20.6316 50.3023 16.5292C47.7694 11.3055 49.7688 5.9825 55.4406 4.62245ZM53.8008 10.9157L58.5943 10.9213L60.3559 10.9199C60.0126 8.19663 58.7369 7.3923 56.108 7.68076C54.337 8.68992 54.3162 8.9825 53.8008 10.9157Z" fill="var(--fill-0, #060A08)"/>
<path id="Vector_6" d="M74.2201 4.63253C74.6339 4.60338 75.0461 4.58185 75.4599 4.56765C78.1107 4.48875 80.713 5.90496 81.1388 8.60826C81.6617 11.9098 81.4374 16.0803 81.445 19.4474L76.8724 19.4802C76.7572 16.1339 78.4244 5.29385 71.7846 8.90527C70.3493 10.3885 70.4448 11.8377 70.4539 13.8193C70.4614 15.7059 70.4796 17.5942 70.4827 19.4807C69.0625 19.4187 67.4015 19.4732 65.9631 19.488C65.8995 14.7265 65.9556 9.82941 65.9571 5.05773C67.4227 5.06338 68.8883 5.05606 70.3538 5.03561L70.3508 7.31323C71.483 5.66076 72.3529 5.17114 74.2201 4.63253Z" fill="var(--fill-0, #060A08)"/>
<path id="Vector_7" d="M110.473 1.86026L115.028 1.86362C114.979 2.92711 114.949 3.99136 114.935 5.05577L118.926 5.03487L118.912 8.17849C117.6 8.1823 116.287 8.17879 114.975 8.16811C115.008 10.2098 114.74 13.6075 115.222 15.5063C115.59 16.9644 118.069 15.9651 118.829 16.309L118.864 16.9903C118.95 17.8168 119.05 18.6416 119.167 19.4641C108.874 20.8461 110.426 16.5086 110.479 8.2116L108.109 8.22764L108.132 5.0486L110.505 5.0718L110.473 1.86026Z" fill="var(--fill-0, #060A08)"/>
<path id="Vector_8" d="M30.2581 4.61624C30.8793 4.55992 31.881 4.5825 32.5345 4.57854L32.4525 8.38928C28.3266 8.18049 27.0744 9.4917 27.0327 13.7507C27.0142 15.6544 27.0479 17.5644 27.135 19.4731C25.8768 19.4154 24.3131 19.4529 23.0317 19.4482C22.6667 19.4767 22.8162 19.5305 22.5552 19.3293C22.6443 15.4535 22.7454 8.84579 22.5193 5.03641L27.0885 5.02313L27.0811 7.38607C28.0662 5.66598 28.4056 5.3061 30.2581 4.61624Z" fill="var(--fill-0, #060A08)"/>
<path id="Vector_9" d="M102.119 5.05742C103.633 5.06337 105.176 5.03238 106.693 5.01727C106.687 6.47286 106.775 19.0997 106.551 19.4646C105.073 19.4546 103.595 19.4599 102.118 19.4805C102.031 14.794 102.071 9.75217 102.119 5.05742Z" fill="var(--fill-0, #060A08)"/>
<path id="Vector_10" d="M103.879 0.042762C105.143 -0.03584 106.398 0.188214 106.865 1.58092C107.013 2.02399 106.962 2.51056 106.721 2.91135C106.313 3.60519 105.748 3.78101 105.04 3.94997C103.774 4.00048 102.386 3.87549 101.924 2.41532C101.801 2.03986 101.837 1.63067 102.022 1.28223C102.433 0.512691 103.109 0.248196 103.879 0.042762Z" fill="var(--fill-0, #060A08)"/>
</g>
</svg>
