<svg preserveAspectRatio="none" width="100%" height="100%" overflow="visible" style="display: block;" viewBox="0 0 95.0436 14.8682" fill="none" xmlns="http://www.w3.org/2000/svg">
<g id="Group">
<path id="Vector" d="M4.34217 0H6.34295L10.6762 11.9649H8.73322L7.64175 8.73201H3.04337L1.94302 11.9649H0L4.34217 0ZM3.53949 7.23955H7.13675L5.35959 1.98252H5.32701L3.53949 7.23955Z" fill="var(--fill-0, white)"/>
<path id="Vector_2" d="M11.821 3.24183H13.6071V4.7432H13.6485C14.1698 3.70665 15.1295 3.07699 16.369 3.07699C18.586 3.07699 20.0078 4.81894 20.0078 7.60338V7.61229C20.0078 10.3908 18.5772 12.1387 16.3942 12.1387C15.1621 12.1387 14.1609 11.509 13.6485 10.4977H13.6071V14.8682H11.821V3.24183ZM18.1891 7.61229V7.60338C18.1891 5.7456 17.3035 4.61104 15.907 4.61104C14.5504 4.61104 13.5997 5.78867 13.5997 7.60338V7.61229C13.5997 9.42107 14.5593 10.5972 15.907 10.5972C17.3109 10.5972 18.1891 9.45225 18.1891 7.61229Z" fill="var(--fill-0, white)"/>
<path id="Vector_3" d="M21.7716 3.24183H23.5576V4.7432H23.5991C24.1204 3.70665 25.0786 3.07699 26.3196 3.07699C28.5366 3.07699 29.9583 4.81894 29.9583 7.60338V7.61229C29.9583 10.3908 28.5277 12.1387 26.3448 12.1387C25.1126 12.1387 24.1115 11.509 23.5991 10.4977H23.5576V14.8682H21.7716V3.24183ZM28.1382 7.61229V7.60338C28.1382 5.7456 27.2526 4.61104 25.8561 4.61104C24.4995 4.61104 23.5487 5.78867 23.5487 7.60338V7.61229C23.5487 9.42107 24.5084 10.5972 25.8561 10.5972C27.2615 10.5972 28.1382 9.45225 28.1382 7.61229Z" fill="var(--fill-0, white)"/>
<path id="Vector_4" d="M31.5326 4.2562e-07H33.3201V11.9649H31.5326V4.2562e-07Z" fill="var(--fill-0, white)"/>
<path id="Vector_5" d="M35.0573 7.63605V7.62714C35.0573 4.89913 36.6286 3.07551 39.0692 3.07551C41.5098 3.07551 43.0056 4.83231 43.0056 7.45339V8.05929H36.8463C36.8789 9.70916 37.7808 10.67 39.2025 10.67C40.2614 10.67 40.9648 10.1235 41.1885 9.46859L41.2136 9.40176H42.9079L42.8916 9.49383C42.6117 10.8779 41.2699 12.1387 39.1625 12.1387C36.6049 12.1387 35.0573 10.3893 35.0573 7.63605ZM36.87 6.79107H41.2358C41.0863 5.28227 40.2436 4.54421 39.0781 4.54421C37.9185 4.54421 37.0255 5.33128 36.87 6.79107Z" fill="var(--fill-0, white)"/>
<path id="Vector_6" d="M48.6836 4.2562e-07H50.6103L52.8362 9.378H52.8688L55.3909 4.2562e-07H57.1428L59.6649 9.378H59.7064L61.9308 4.2562e-07H63.859L60.6335 11.9649H58.8563L56.2928 2.94334H56.2498L53.6774 11.9649H51.8988L48.6836 4.2562e-07Z" fill="var(--fill-0, white)"/>
<path id="Vector_7" d="M64.367 9.48492V9.46859C64.367 7.95088 65.5428 7.02273 67.6014 6.89799L69.965 6.75691V6.10201C69.965 5.1412 69.3445 4.55906 68.2367 4.55906C67.203 4.55906 66.5662 5.04912 66.4181 5.7456L66.4003 5.82134H64.715L64.7224 5.72927C64.8468 4.2279 66.1456 3.07551 68.2871 3.07551C70.4122 3.07551 71.7599 4.20414 71.7599 5.95202V11.9634H69.965V10.5868H69.9324C69.4274 11.5239 68.4203 12.1209 67.2696 12.1209C65.534 12.1223 64.367 11.0531 64.367 9.48492ZM67.7569 10.6893C69.0127 10.6893 69.965 9.83539 69.965 8.69785V8.01771L67.8398 8.15136C66.7661 8.2167 66.1693 8.68895 66.1693 9.42701V9.44483C66.1693 10.2067 66.7987 10.6893 67.7569 10.6893Z" fill="var(--fill-0, white)"/>
<path id="Vector_8" d="M73.7162 4.2562e-07H75.5023V11.9649H73.7162V4.2562e-07Z" fill="var(--fill-0, white)"/>
<path id="Vector_9" d="M78.0184 4.2562e-07H79.8045V11.9649H78.0184V4.2562e-07Z" fill="var(--fill-0, white)"/>
<path id="Vector_10" d="M81.3743 7.63605V7.62714C81.3743 4.89913 82.9441 3.07551 85.3847 3.07551C87.8254 3.07551 89.3226 4.83231 89.3226 7.45339V8.05929H83.1618C83.1944 9.70916 84.0963 10.67 85.5195 10.67C86.5784 10.67 87.2804 10.1235 87.504 9.46859L87.5307 9.40176H89.2249L89.2086 9.49383C88.9272 10.8779 87.5869 12.1387 85.478 12.1387C82.9204 12.1387 81.3743 10.3893 81.3743 7.63605ZM83.1855 6.79107H87.5529C87.4033 5.28227 86.5606 4.54421 85.3936 4.54421C84.2355 4.54421 83.3425 5.33128 83.1855 6.79107Z" fill="var(--fill-0, white)"/>
<path id="Vector_11" d="M91.5885 9.66758V4.66747H90.3385V3.24035H91.5885V0.968244H93.4145V3.24035H95.0436V4.66747H93.4145V9.55917C93.4145 10.4472 93.8129 10.7116 94.5637 10.7116C94.7548 10.7116 94.9103 10.6937 95.0436 10.6789V12.0629C94.8362 12.0956 94.4986 12.1372 94.1342 12.1372C92.4149 12.1387 91.5885 11.4095 91.5885 9.66758Z" fill="var(--fill-0, white)"/>
</g>
</svg>
