<svg preserveAspectRatio="none" width="100%" height="100%" overflow="visible" style="display: block;" viewBox="0 0 39.127 14.8444" fill="none" xmlns="http://www.w3.org/2000/svg">
<g id="Group">
<path id="Vector" fill-rule="evenodd" clip-rule="evenodd" d="M29.2949 0C29.0683 0 28.8402 2.01666e-06 28.6136 0.00148705C28.4226 0.00297209 28.2315 0.00445506 28.0405 0.0103952C27.6243 0.0222755 27.2037 0.046038 26.792 0.12029C26.3744 0.196027 25.9849 0.319284 25.6058 0.512339C25.5569 0.537585 24.5128 1.0128 23.5739 2.47704C22.8616 3.58933 21.4754 4.76845 19.5353 4.76845C17.5953 4.76845 16.2091 3.58933 15.4968 2.47704C14.509 0.934089 13.382 0.470758 13.4634 0.512339C13.0843 0.317799 12.6948 0.196027 12.2772 0.12029C11.8655 0.046038 11.4449 0.0207905 11.0287 0.0103952C10.8377 0.0059401 10.6466 0.00297209 10.4556 0.00148705C10.229 2.01666e-06 10.0009 0 9.77433 0H0V14.8444H39.127V0H29.2949Z" fill="var(--fill-0, #DEDBCE)"/>
</g>
</svg>
