<svg preserveAspectRatio="none" width="100%" height="100%" overflow="visible" style="display: block;" viewBox="0 0 34.8973 14.8474" fill="none" xmlns="http://www.w3.org/2000/svg">
<g id="Group">
<path id="Vector" fill-rule="evenodd" clip-rule="evenodd" d="M34.8973 3.13491C34.8973 3.01462 34.8973 2.89582 34.8973 2.77553C34.8973 2.67455 34.8959 2.57356 34.8929 2.47258C34.887 2.2528 34.8736 2.03153 34.8351 1.81471C34.7951 1.59493 34.7315 1.38999 34.6293 1.18951C34.5301 0.993488 34.3997 0.812315 34.2442 0.656386C34.0887 0.500458 33.9095 0.369773 33.7126 0.268791C33.5126 0.166324 33.3083 0.102467 33.0891 0.0623712C32.8729 0.0237603 32.6522 0.0103956 32.433 0.00445549C32.3323 0.00148542 32.2316 0 32.1309 0C32.0109 0 31.8925 0 31.7725 0H31.6733H4.49471H3.12482C3.00487 0 2.88639 0 2.76643 0C2.66573 0 2.56502 0.00148542 2.46432 0.00445549C2.24513 0.0103956 2.02447 0.0237603 1.80825 0.0623712C1.58907 0.102467 1.3847 0.166324 1.18477 0.268791C0.989281 0.368288 0.808604 0.498972 0.653103 0.656386C0.497602 0.812315 0.367278 0.992003 0.268053 1.18951C0.165867 1.38999 0.102186 1.59493 0.0622 1.81471C0.0236951 2.03153 0.0103671 2.2528 0.00444326 2.47258C0.00148134 2.57356 0 2.67455 0 2.77553C0 2.89582 0 3.01462 0 3.13491V4.50857V3.42895V14.8474H34.8973V3.50171V3.13491Z" fill="var(--fill-0, #F26D5F)"/>
</g>
</svg>
