<svg preserveAspectRatio="none" width="100%" height="100%" overflow="visible" style="display: block;" viewBox="0 0 160.594 48.5859" fill="none" xmlns="http://www.w3.org/2000/svg">
<path id="Vector" d="M147.446 0C147.976 0 148.515 5.00586e-08 149.045 0.00297012C149.41 0.00594019 149.783 0.0118803 150.15 0.0178205L150.393 0.0222756C151.176 0.0415811 152.203 0.0876171 153.213 0.270277C154.129 0.43066 154.966 0.706877 155.764 1.10932C156.563 1.52068 157.287 2.04935 157.919 2.68494C158.546 3.30866 159.074 4.03633 159.488 4.84122C159.889 5.64165 160.16 6.47624 160.317 7.40884C160.49 8.34441 160.543 9.32157 160.576 10.217C160.582 10.6685 160.582 11.1214 160.582 11.5922C160.594 12.1238 160.594 12.6555 160.594 13.1931V35.3914C160.594 35.9319 160.594 36.4621 160.582 37.016C160.582 37.4734 160.582 37.9159 160.576 38.351C160.543 39.2673 160.49 40.2445 160.314 41.1964C160.158 42.1201 159.887 42.9547 159.492 43.7402C159.071 44.5555 158.543 45.2802 157.913 45.9024C157.287 46.5366 156.566 47.0637 155.767 47.4706C154.981 47.8716 154.143 48.1478 153.207 48.3186C152.237 48.4953 151.239 48.5428 150.396 48.5666C149.952 48.577 149.497 48.5829 149.047 48.5829C148.517 48.5859 147.977 48.5859 147.447 48.5859H13.1554C12.6148 48.5859 12.0802 48.5859 11.5337 48.5829C11.0879 48.5829 10.6451 48.577 10.1994 48.5681C9.35226 48.5443 8.35557 48.4968 7.37666 48.3201C6.43921 48.1508 5.60543 47.8731 4.82645 47.4721C4.02821 47.0667 3.3055 46.538 2.66869 45.8935C2.04372 45.2772 1.51798 44.5555 1.10628 43.7447C0.70938 42.968 0.435402 42.1319 0.271016 41.1845C0.0873767 40.1732 0.0414669 39.1441 0.0207334 38.357C0.0118477 38.0481 0.00740483 37.7466 0.00444291 37.4422L0 37.016V35.3914V13.1931V11.5877L0.00592385 11.1437C0.00888577 10.8408 0.0133287 10.5378 0.0222145 10.2304C0.0414669 9.44631 0.0888576 8.41718 0.273978 7.39845C0.436883 6.46287 0.70938 5.62828 1.10924 4.8427C1.5165 4.03633 2.04224 3.31014 2.67609 2.68197C3.30698 2.04786 4.03265 1.51919 4.82793 1.11081C5.62172 0.705392 6.45402 0.43066 7.37666 0.268791C8.38964 0.0861321 9.41742 0.041581 10.189 0.0207905L10.4822 0.0163354C10.8362 0.0103953 11.1872 0.00445516 11.5396 0.00297012C12.0787 5.00586e-08 12.6148 0 13.1554 0H147.446Z" fill="var(--fill-0, black)"/>
</svg>
