<svg preserveAspectRatio="none" width="100%" height="100%" overflow="visible" style="display: block;" viewBox="0 0 38.2961 9.50126" fill="none" xmlns="http://www.w3.org/2000/svg">
<g id="Group">
<path id="Vector" d="M5.64098 6.81037H2.07483L1.1744 9.38394H0L3.30551 0.393534H4.41178L7.71728 9.38394H6.54288L5.64098 6.81037ZM2.40508 5.85698H5.31369L3.90825 1.84441H3.80903L2.40508 5.85698Z" fill="var(--fill-0, white)"/>
<path id="Vector_2" d="M8.42666 6.02479C8.42666 3.91901 9.53886 2.54832 11.242 2.54832C12.1735 2.54832 12.9628 2.99086 13.342 3.72595H13.4353V0H14.5045V9.38245H13.4856V8.31026H13.3864C12.9643 9.05723 12.169 9.49977 11.242 9.49977C9.52701 9.50126 8.42666 8.13651 8.42666 6.02479ZM9.53294 6.02479C9.53294 7.59447 10.266 8.53598 11.4908 8.53598C12.7081 8.53598 13.4604 7.57665 13.4604 6.02479C13.4604 4.48629 12.7022 3.51359 11.4908 3.51359C10.2719 3.51359 9.53294 4.46105 9.53294 6.02479Z" fill="var(--fill-0, white)"/>
<path id="Vector_3" d="M16.2284 6.02479C16.2284 3.91901 17.3406 2.54832 19.0437 2.54832C19.9752 2.54832 20.7645 2.99086 21.1437 3.72595H21.237V0H22.3062V9.38245H21.2873V8.31026H21.1866C20.7645 9.05723 19.9693 9.49977 19.0422 9.49977C17.3272 9.50126 16.2284 8.13651 16.2284 6.02479ZM17.3332 6.02479C17.3332 7.59447 18.0662 8.53598 19.291 8.53598C20.5083 8.53598 21.2607 7.57665 21.2607 6.02479C21.2607 4.48629 20.5024 3.51359 19.291 3.51359C18.0722 3.51359 17.3332 4.46105 17.3332 6.02479Z" fill="var(--fill-0, white)"/>
<path id="Vector_4" d="M29.4563 0.928148V2.66712H30.9491V3.56409H29.4563V7.36578C29.4563 8.1573 29.7554 8.49292 30.4515 8.49292C30.644 8.49292 30.7492 8.48698 30.9491 8.46767V9.37057C30.7358 9.4077 30.533 9.43294 30.3212 9.43294C28.9424 9.43294 28.3885 8.92209 28.3885 7.63902V3.56409H27.3089V2.66712H28.3885V0.928148H29.4563Z" fill="var(--fill-0, white)"/>
<path id="Vector_5" d="M32.1191 6.02479C32.1191 3.86258 33.3009 2.54832 35.2083 2.54832C37.1158 2.54832 38.2961 3.86258 38.2961 6.02479C38.2961 8.17958 37.1158 9.50126 35.2083 9.50126C33.3009 9.50126 32.1191 8.17958 32.1191 6.02479ZM37.1899 6.02479C37.1899 4.42986 36.4746 3.51359 35.2069 3.51359C33.9392 3.51359 33.2239 4.42986 33.2239 6.02479C33.2239 7.61378 33.9377 8.53598 35.2069 8.53598C36.4746 8.53598 37.1899 7.61378 37.1899 6.02479Z" fill="var(--fill-0, white)"/>
</g>
</svg>
