<svg preserveAspectRatio="none" width="100%" height="100%" overflow="visible" style="display: block;" viewBox="0 0 38.0695 28.6315" fill="none" xmlns="http://www.w3.org/2000/svg">
<g id="Clip path group">
<mask id="mask0_0_49" style="mask-type:luminance" maskUnits="userSpaceOnUse" x="0" y="0" width="39" height="29">
<g id="SVGID_2_">
<path id="Vector" d="M38.0696 23.2987V23.6923C38.0696 23.8809 38.0696 24.0695 38.0681 24.2581C38.0666 24.417 38.0651 24.5759 38.0607 24.7348C38.0518 25.0808 38.031 25.4297 37.9703 25.7713C37.9081 26.1188 37.8059 26.4425 37.646 26.7574C37.489 27.0677 37.2832 27.3514 37.0373 27.5964C36.7915 27.8429 36.5086 28.0479 36.2006 28.2068C35.8866 28.3671 35.5638 28.4696 35.2172 28.532C34.8766 28.5929 34.5286 28.6137 34.1835 28.6226C34.0251 28.627 33.8666 28.6285 33.7081 28.63C33.52 28.6315 33.332 28.6315 33.1439 28.6315L30.9832 28.63L32.9943 28.6315H5.07377L7.08491 28.63L4.92419 28.6315C4.73611 28.6315 4.54803 28.6315 4.35995 28.63C4.20148 28.6285 4.04302 28.627 3.88456 28.6226C3.53949 28.6137 3.19147 28.5929 2.85085 28.532C2.5043 28.4696 2.18293 28.3671 1.86749 28.2068C1.55797 28.0493 1.27511 27.8429 1.03075 27.5964C0.784909 27.3499 0.580536 27.0663 0.422073 26.7574C0.26213 26.4425 0.159944 26.1188 0.0977433 25.7713C0.037024 25.4297 0.0162907 25.0808 0.00740497 24.7348C0.00296209 24.5759 0.00148085 24.417 0.00148085 24.2581C-1.07409e-07 24.0695 0 23.8809 0 23.6923V23.3834V5.24812V7.10441V4.93923C0 4.75063 -1.07409e-07 4.56203 0.00148085 4.37343C0.00296181 4.21453 0.00444294 4.05563 0.00888582 3.89673C0.0177716 3.55072 0.0385048 3.20174 0.0992242 2.86018C0.161424 2.51268 0.263611 2.18894 0.423554 1.87411C0.580536 1.56374 0.786389 1.2801 1.03223 1.03507C1.27807 0.788555 1.56093 0.583619 1.86897 0.424721C2.18293 0.264337 2.50578 0.161869 2.85233 0.099498C3.19295 0.0386115 3.54097 0.0178205 3.88604 0.00891027C4.0445 0.00445517 4.20296 0.00297067 4.36143 0.00148564C4.54951 6.00415e-07 4.73759 0 4.92567 0H7.08491H32.9958H33.1439C33.332 0 33.52 6.00415e-07 33.7081 0.00148564C33.8666 0.00297067 34.0251 0.00445517 34.1835 0.00891027C34.5286 0.0178205 34.8766 0.0386115 35.2172 0.099498C35.5638 0.161869 35.8851 0.264337 36.2006 0.424721C36.5101 0.582134 36.793 0.788555 37.0373 1.03507C37.2832 1.28159 37.4875 1.56523 37.646 1.87411C37.8059 2.18894 37.9081 2.51268 37.9703 2.86018C38.031 3.20174 38.0518 3.55072 38.0607 3.89673C38.0651 4.05563 38.0666 4.21453 38.0681 4.37343C38.0696 4.56203 38.0696 4.75063 38.0696 4.93923V5.33276V23.2987Z" fill="var(--fill-0, white)"/>
</g>
</mask>
<g mask="url(#mask0_0_49)">
<path id="Vector_2" fill-rule="evenodd" clip-rule="evenodd" d="M-0.528702 -0.530158V15.9062H1.58611V6.09756V4.7239C1.58611 4.60361 1.58611 4.48481 1.58611 4.36452C1.58611 4.26354 1.58759 4.16256 1.59055 4.06157C1.59648 3.84179 1.6098 3.62052 1.64831 3.4037C1.68829 3.18392 1.75198 2.97898 1.85416 2.7785C1.95339 2.58248 2.08371 2.4013 2.23921 2.24537C2.39619 2.09093 2.57539 1.96025 2.77088 1.86075C2.97081 1.75828 3.17518 1.69443 3.39436 1.65433C3.61058 1.61572 3.83124 1.60235 4.05042 1.59641C4.15113 1.59344 4.25184 1.59196 4.35254 1.59196C4.4725 1.59196 4.59098 1.59196 4.71093 1.59196H6.08082H33.2535H33.3586C33.4786 1.59196 33.5971 1.59196 33.717 1.59196C33.8177 1.59196 33.9184 1.59344 34.0191 1.59641C34.2383 1.60235 34.459 1.61572 34.6752 1.65433C34.8944 1.69443 35.0987 1.75828 35.2987 1.86075C35.4942 1.96025 35.6748 2.09093 35.8303 2.24834C35.9858 2.40427 36.1162 2.58396 36.2154 2.78147C36.3176 2.98195 36.3813 3.18689 36.4212 3.40667C36.4598 3.62349 36.4731 3.84476 36.479 4.06454C36.482 4.16553 36.4834 4.26651 36.4834 4.36749C36.4834 4.48778 36.4834 4.60658 36.4834 4.72687V6.10053V15.9092H38.5983V-0.530158H-0.528702Z" fill="var(--fill-0, #D9D6CC)"/>
</g>
</g>
</svg>
