<svg preserveAspectRatio="none" width="100%" height="100%" overflow="visible" style="display: block;" viewBox="0 0 16 16" fill="none" xmlns="http://www.w3.org/2000/svg">
<g id="Icon">
<g id="Vector">
<path d="M4.83333 4V1.33333C4.83333 1.05719 5.05719 0.833333 5.33333 0.833333C5.60948 0.833333 5.83333 1.05719 5.83333 1.33333V4C5.83333 4.27614 5.60948 4.5 5.33333 4.5C5.05719 4.5 4.83333 4.27614 4.83333 4Z" fill="var(--fill-0, #8E8E8E)"/>
<path d="M10.1667 4V1.33333C10.1667 1.05719 10.3905 0.833333 10.6667 0.833333C10.9428 0.833333 11.1667 1.05719 11.1667 1.33333V4C11.1667 4.27614 10.9428 4.5 10.6667 4.5C10.3905 4.5 10.1667 4.27614 10.1667 4Z" fill="var(--fill-0, #8E8E8E)"/>
<path d="M13.5 4C13.5 3.53976 13.1269 3.16667 12.6667 3.16667H3.33333C2.8731 3.16667 2.5 3.53976 2.5 4V13.3333C2.5 13.7936 2.8731 14.1667 3.33333 14.1667H12.6667C13.1269 14.1667 13.5 13.7936 13.5 13.3333V4ZM14.5 13.3333C14.5 14.3459 13.6792 15.1667 12.6667 15.1667H3.33333C2.32081 15.1667 1.5 14.3459 1.5 13.3333V4C1.5 2.98748 2.32081 2.16667 3.33333 2.16667H12.6667C13.6792 2.16667 14.5 2.98748 14.5 4V13.3333Z" fill="var(--fill-0, #8E8E8E)"/>
<path d="M14 6.16667C14.2761 6.16667 14.5 6.39052 14.5 6.66667C14.5 6.94281 14.2761 7.16667 14 7.16667H2C1.72386 7.16667 1.5 6.94281 1.5 6.66667C1.5 6.39052 1.72386 6.16667 2 6.16667H14Z" fill="var(--fill-0, #8E8E8E)"/>
</g>
</g>
</svg>
