<svg preserveAspectRatio="none" width="100%" height="100%" overflow="visible" style="display: block;" viewBox="0 0 16 16" fill="none" xmlns="http://www.w3.org/2000/svg">
<g id="Icon" clip-path="url(#clip0_0_177)">
<g id="Vector">
<path d="M14.1667 8C14.1667 4.59424 11.4058 1.83333 8 1.83333C4.59424 1.83333 1.83333 4.59424 1.83333 8C1.83333 11.4058 4.59424 14.1667 8 14.1667C11.4058 14.1667 14.1667 11.4058 14.1667 8ZM15.1667 8C15.1667 11.958 11.958 15.1667 8 15.1667C4.04196 15.1667 0.833333 11.958 0.833333 8C0.833333 4.04196 4.04196 0.833333 8 0.833333C11.958 0.833333 15.1667 4.04196 15.1667 8Z" fill="var(--fill-0, #8E8E8E)"/>
<path d="M9.64648 5.64648C9.84175 5.45122 10.1583 5.45122 10.3535 5.64648C10.5488 5.84175 10.5488 6.15825 10.3535 6.35352L6.35352 10.3535C6.15825 10.5488 5.84175 10.5488 5.64648 10.3535C5.45122 10.1583 5.45122 9.84175 5.64648 9.64648L9.64648 5.64648Z" fill="var(--fill-0, #8E8E8E)"/>
<path d="M5.64648 5.64648C5.84175 5.45122 6.15825 5.45122 6.35352 5.64648L10.3535 9.64648C10.5488 9.84175 10.5488 10.1583 10.3535 10.3535C10.1583 10.5488 9.84175 10.5488 9.64648 10.3535L5.64648 6.35352C5.45122 6.15825 5.45122 5.84175 5.64648 5.64648Z" fill="var(--fill-0, #8E8E8E)"/>
</g>
</g>
<defs>
<clipPath id="clip0_0_177">
<rect width="16" height="16" fill="white"/>
</clipPath>
</defs>
</svg>
