<svg preserveAspectRatio="none" width="100%" height="100%" overflow="visible" style="display: block;" viewBox="0 0 16 16" fill="none" xmlns="http://www.w3.org/2000/svg">
<g id="Icon">
<g id="Vector">
<path d="M1.5 12.6667V3.33333C1.5 2.8471 1.69329 2.38093 2.03711 2.03711C2.38093 1.69329 2.8471 1.5 3.33333 1.5H8C8.27614 1.5 8.5 1.72386 8.5 2C8.5 2.27614 8.27614 2.5 8 2.5H3.33333C3.11232 2.5 2.90042 2.58786 2.74414 2.74414C2.58786 2.90042 2.5 3.11232 2.5 3.33333V12.6667C2.5 12.8877 2.58786 13.0996 2.74414 13.2559C2.90042 13.4121 3.11232 13.5 3.33333 13.5H12.6667C12.8877 13.5 13.0996 13.4121 13.2559 13.2559C13.4121 13.0996 13.5 12.8877 13.5 12.6667V8C13.5 7.72386 13.7239 7.5 14 7.5C14.2761 7.5 14.5 7.72386 14.5 8V12.6667C14.5 13.1529 14.3067 13.6191 13.9629 13.9629C13.6191 14.3067 13.1529 14.5 12.6667 14.5H3.33333C2.8471 14.5 2.38093 14.3067 2.03711 13.9629C1.69329 13.6191 1.5 13.1529 1.5 12.6667Z" fill="var(--fill-0, #4A524C)"/>
<path d="M14.164 2.74985C14.164 2.50744 14.0678 2.27478 13.8964 2.10336C13.725 1.93198 13.4924 1.83579 13.2499 1.83579C13.0075 1.8358 12.7749 1.93196 12.6035 2.10336L6.59499 8.11313C6.52075 8.18727 6.46084 8.27466 6.41921 8.37029L6.38405 8.46795L5.90944 10.0903L7.53249 9.61639C7.63328 9.58695 7.72737 9.53845 7.80983 9.47446L7.88796 9.40545L13.8964 3.39633C14.0678 3.22489 14.164 2.99229 14.164 2.74985ZM15.164 2.74985C15.164 3.25751 14.9624 3.74438 14.6035 4.10336L8.59499 10.1131C8.37738 10.3305 8.10835 10.4898 7.81309 10.576L5.89772 11.1359C5.75437 11.1777 5.60161 11.1801 5.45697 11.1431C5.31235 11.106 5.18038 11.0306 5.07481 10.925C4.96923 10.8194 4.89377 10.6875 4.85671 10.5428C4.81963 10.3981 4.82204 10.2455 4.86387 10.1021L5.42442 8.1867L5.46022 8.07732C5.55177 7.82519 5.69747 7.59562 5.88796 7.40545L11.8964 1.39633C12.2554 1.03739 12.7423 0.835803 13.2499 0.835787C13.7576 0.835787 14.2445 1.03742 14.6035 1.39633C14.9624 1.75528 15.164 2.24222 15.164 2.74985Z" fill="var(--fill-0, #4A524C)"/>
</g>
</g>
</svg>
