<svg preserveAspectRatio="none" width="100%" height="100%" overflow="visible" style="display: block;" viewBox="0 0 16 16" fill="none" xmlns="http://www.w3.org/2000/svg">
<g id="Icon" clip-path="url(#clip0_0_193)">
<path id="Vector" d="M5.5 2.66667C5.5 2.44565 5.41214 2.23375 5.25586 2.07747C5.09958 1.92119 4.88768 1.83333 4.66667 1.83333H2.66667C2.44565 1.83333 2.23375 1.92119 2.07747 2.07747C1.92119 2.23375 1.83333 2.44565 1.83333 2.66667C1.83333 5.71666 3.04515 8.64151 5.20182 10.7982C7.35849 12.9548 10.2833 14.1667 13.3333 14.1667C13.5543 14.1667 13.7662 14.0788 13.9225 13.9225C14.0788 13.7662 14.1667 13.5543 14.1667 13.3333V11.3333C14.1667 11.1123 14.0788 10.9004 13.9225 10.7441C13.7662 10.5879 13.5543 10.5 13.3333 10.5H11.3333C11.2041 10.5 11.0766 10.5301 10.9609 10.5879C10.8452 10.6457 10.7443 10.7298 10.6667 10.8333L10.6641 10.8366L10.4277 11.1465C10.2672 11.3573 10.0396 11.5074 9.78255 11.5716C9.52532 11.6359 9.25332 11.6107 9.01237 11.5C9.00858 11.4983 9.00505 11.496 9.0013 11.4941C7.05049 10.5367 5.47166 8.95999 4.51172 7.01042L4.51042 7.00846C4.39237 6.7663 4.36179 6.49067 4.42383 6.22852C4.48592 5.96632 4.63677 5.7332 4.85091 5.56966L4.85482 5.56706L5.16667 5.33333C5.27016 5.25571 5.35425 5.15478 5.41211 5.03906C5.46988 4.92342 5.5 4.79594 5.5 4.66667V2.66667ZM6.5 4.66667C6.5 4.95119 6.43384 5.23183 6.30664 5.48633C6.17938 5.74086 5.99457 5.9627 5.76693 6.13346L5.45768 6.36393L5.45833 6.36458C5.42774 6.38795 5.40601 6.42152 5.39714 6.45898C5.38847 6.49576 5.39271 6.53423 5.40885 6.56836L5.57682 6.89258C6.448 8.4917 7.79389 9.7851 9.43294 10.5918C9.46662 10.6065 9.50399 10.6098 9.53971 10.6009C9.57646 10.5917 9.60922 10.5705 9.63216 10.5404L9.63281 10.5397L9.86914 10.2298C10.0396 10.0037 10.2604 9.82 10.5137 9.69336C10.7682 9.56616 11.0488 9.5 11.3333 9.5H13.3333C13.8196 9.5 14.2857 9.69329 14.6296 10.0371C14.9734 10.3809 15.1667 10.8471 15.1667 11.3333V13.3333C15.1667 13.8196 14.9734 14.2857 14.6296 14.6296C14.2857 14.9734 13.8196 15.1667 13.3333 15.1667C10.0181 15.1667 6.839 13.8494 4.49479 11.5052C2.15059 9.161 0.833333 5.98187 0.833333 2.66667C0.833333 2.18044 1.02663 1.71426 1.37044 1.37044C1.71426 1.02663 2.18044 0.833333 2.66667 0.833333H4.66667C5.1529 0.833333 5.61907 1.02663 5.96289 1.37044C6.30671 1.71426 6.5 2.18044 6.5 2.66667V4.66667Z" fill="var(--fill-0, #0D1711)"/>
</g>
<defs>
<clipPath id="clip0_0_193">
<rect width="16" height="16" fill="white"/>
</clipPath>
</defs>
</svg>
